<?xml version="1.0" standalone="no"?>
<!DOCTYPE svg PUBLIC "-//W3C//DTD SVG 20010904//EN"
 "http://www.w3.org/TR/2001/REC-SVG-20010904/DTD/svg10.dtd">
<svg version="1.0" xmlns="http://www.w3.org/2000/svg"
 width="600.000000pt" height="600.000000pt" viewBox="0 0 600.000000 600.000000"
 preserveAspectRatio="xMidYMid meet">
<metadata>
Created by potrace 1.14, written by Peter Selinger 2001-2017
</metadata>
<g transform="translate(0.000000,600.000000) scale(0.100000,-0.100000)"
fill="#000000" stroke="none">
<path d="M2770 5994 c-19 -2 -78 -9 -130 -15 -537 -61 -1080 -289 -1520 -639
-135 -107 -353 -325 -460 -460 -350 -440 -561 -940 -642 -1520 -17 -127 -17
-593 0 -720 53 -378 148 -686 310 -1003 144 -285 323 -530 551 -758 477 -477
1063 -763 1761 -861 127 -17 593 -17 720 0 580 81 1080 292 1520 642 135 107
353 325 460 460 302 380 516 839 604 1298 44 230 51 306 51 582 0 276 -7 352
-51 582 -88 459 -302 918 -604 1298 -107 135 -325 353 -460 460 -431 343 -919
552 -1480 636 -100 14 -547 28 -630 18z m426 -394 c342 -27 643 -110 949 -259
638 -313 1118 -869 1334 -1544 136 -426 159 -895 65 -1338 -212 -1010 -1025
-1808 -2044 -2008 -823 -161 -1678 87 -2289 664 -794 750 -1032 1921 -596
2933 434 1005 1488 1638 2581 1552z"/>
<path d="M2781 5439 c-504 -45 -1011 -262 -1386 -595 -436 -386 -703 -864
-807 -1441 -20 -113 -23 -160 -23 -398 0 -238 3 -285 23 -398 78 -432 246
-805 512 -1136 94 -116 295 -314 405 -397 319 -243 683 -405 1063 -473 680
-123 1358 44 1927 472 112 85 367 343 455 461 264 355 423 750 476 1186 22
184 15 514 -15 685 -71 402 -220 747 -462 1072 -87 117 -343 376 -454 460
-507 382 -1102 556 -1714 502z m708 -1258 c39 -71 71 -134 71 -140 0 -13 -548
-646 -560 -646 -11 0 -560 634 -560 647 0 5 32 68 71 139 l70 129 419 0 419 0
70 -129z m-855 -1035 c128 -36 200 -87 237 -171 31 -71 44 -177 30 -252 -22
-118 -76 -190 -180 -239 l-55 -27 62 -22 c73 -26 135 -67 163 -106 48 -68 67
-185 50 -299 -41 -260 -190 -329 -708 -330 l-153 0 0 736 0 737 248 -6 c185
-4 262 -9 306 -21z m1286 -31 l0 -55 -125 0 -125 0 0 -625 0 -625 125 0 125 0
0 -55 0 -55 -310 0 -310 0 0 55 0 55 125 0 125 0 0 625 0 625 -125 0 -125 0 0
55 0 55 310 0 310 0 0 -55z"/>
<path d="M2690 4236 c0 -12 62 -136 68 -136 4 1 41 32 82 70 l75 70 -112 0
c-62 0 -113 -2 -113 -4z"/>
<path d="M3160 4170 c41 -38 78 -69 82 -70 6 0 68 124 68 136 0 2 -51 4 -112
4 l-113 0 75 -70z"/>
<path d="M2572 4158 l-40 -73 70 -3 c39 -2 73 -1 75 2 6 6 -47 135 -58 141 -4
3 -25 -28 -47 -67z"/>
<path d="M3350 4166 c-16 -37 -30 -72 -30 -77 0 -5 34 -9 75 -9 l76 0 -37 68
c-20 37 -41 71 -45 76 -5 5 -22 -21 -39 -58z"/>
<path d="M2922 4158 c-37 -33 -71 -65 -76 -70 -6 -4 63 -8 153 -8 l163 0 -74
70 c-40 38 -79 69 -86 70 -7 0 -43 -28 -80 -62z"/>
<path d="M2572 3981 c64 -79 302 -350 305 -347 2 2 -33 87 -78 190 l-82 186
-84 0 -84 0 23 -29z"/>
<path d="M2793 4003 c2 -5 48 -110 103 -235 54 -126 101 -228 104 -228 3 0 50
102 104 228 55 125 101 230 103 235 2 4 -91 7 -207 7 -116 0 -209 -3 -207 -7z"/>
<path d="M3201 3824 c-45 -103 -80 -188 -78 -190 3 -3 259 288 310 353 l18 23
-84 0 -84 0 -82 -186z"/>
<path d="M2200 2779 l0 -281 183 4 c176 3 184 4 245 32 116 53 157 133 150
286 -5 113 -32 159 -113 196 -74 34 -145 44 -317 44 l-148 0 0 -281z"/>
<path d="M2200 2101 l0 -291 143 0 c168 0 251 12 330 47 107 48 154 138 145
277 -8 120 -54 182 -170 229 -46 18 -78 22 -250 25 l-198 4 0 -291z"/>
</g>
</svg>
